<svg xmlns="http://www.w3.org/2000/svg" width="240" height="16" fill="none" viewBox="0 0 240 16">
  <g clip-path="url(#a)">
    <g clip-path="url(#b)">
      <path fill="#fff" d="M98.867 13.813c3.089 0 5.215-1.49 5.215-3.722 0-2.048-1.353-3.161-3.671-3.537l-2.317-.375c-.772-.184-.964-.375-.964-.744 0-.56.773-.929 1.545-.929.976 0 1.736.411 1.736.93h3.282c-.192-2.234-2.126-3.538-5.024-3.538-3.09 0-5.024 1.304-5.024 3.722 0 1.863 1.353 2.977 3.479 3.352l2.126.375c.964.185 1.353.37 1.353.929 0 .375-.389.744-1.736.744-.977 0-1.718-.41-1.935-.929l-3.479.185c.39 2.232 2.51 3.537 5.407 3.537h.007Zm-15.183-.18h3.479V9.167l4.634-7.073h-3.862L85.81 5.815h-.191l-2.515-3.721H79.05l4.635 7.073v4.466ZM73.642 2.094h-4.054l-4.635 11.539h3.67l.674-1.864h4.641l.674 1.864h3.67l-4.634-11.54h-.006Zm-3.473 7.258 1.347-3.722h.191l1.348 3.722h-2.886ZM56.647 2.094H51.82v11.539h4.827c3.862 0 6.37-2.233 6.37-5.77 0-3.536-2.508-5.77-6.37-5.77Zm-.192 8.746h-.964V4.702h.964c1.934 0 3.09 1.119 3.09 3.161 0 1.864-1.162 2.977-3.09 2.977Zm-20.279 2.793h3.09v-6.33h.197l4.635 6.33h2.7V2.093h-3.28v5.77h-.192l-3.863-5.77h-3.287v11.54Zm-17.578 0h3.479l1.928-6.699h.198l1.544 6.699h3.665l3.09-11.54H29.22l-1.736 6.514h-.192L25.55 2.094h-3.09l-1.737 6.513h-.191l-1.545-6.513h-3.48l3.09 11.539ZM6.432 1.906C2.76 1.906.252 4.324.252 7.86c0 3.352 2.509 5.954 6.18 5.954 3.67 0 6.18-2.608 6.18-5.954 0-3.536-2.51-5.954-6.18-5.954Zm0 8.931c-1.545 0-2.707-1.304-2.707-2.977 0-1.863 1.162-2.977 2.707-2.977S8.94 6.003 8.94 7.86c0 1.673-.964 2.977-2.51 2.977Zm154.472 2.977h-3.565v-8.77l-4.653 8.77h-3.307l-4.641-8.77v8.77h-3.584V1.906h5.593l4.295 7.973 4.288-7.973h5.574v11.908Zm16.025-9.204h-9.22v1.899h8.874v2.703h-8.874v1.9h9.22v2.702h-12.804V1.906h12.804V4.61Zm6.581 6.269h8.565v2.935h-12.149V1.906h3.584v8.973Zm14.836 0h8.565v2.935h-12.149V1.906h3.584v8.973Zm24.23-6.269h-9.226v1.899h8.88v2.703h-8.88v1.9h9.226v2.702h-12.81V1.906h12.81V4.61Zm17.55 6.584v2.62h-3.565v-1.97c0-1.114-.278-1.417-1.49-1.417h-5.784v3.387h-3.584V1.906h9.486c3.219 0 4.999 1.233 4.999 3.751 0 1.75-.797 2.787-2.194 3.287 1.348.13 2.126.917 2.126 2.25m-10.827-6.471v2.881h5.018c1.094 0 2.132 0 2.132-1.435s-1.038-1.452-2.132-1.452h-5.018v.006ZM126.935 1.906l-4.326 4.906-4.332-4.906h-1.847v.006l5.252 5.948-5.246 5.954h1.854l4.319-4.9 4.332 4.9h1.848l-5.253-5.954 5.247-5.954h-1.848Z"/>
    </g>
  </g>
  <defs>
    <clipPath id="a">
      <path fill="#fff" d="M0 0h240v16H0z"/>
    </clipPath>
    <clipPath id="b">
      <path fill="#fff" d="M0-10h240v35.556H0z"/>
    </clipPath>
  </defs>
</svg>
