<svg preserveAspectRatio="none" width="100%" height="100%" overflow="visible" style="display: block;" viewBox="0 0 36.7702 37" fill="none" xmlns="http://www.w3.org/2000/svg">
<g id="cart 1">
<path id="Vector" fill-rule="evenodd" clip-rule="evenodd" d="M7.80557 8.47917H6.12793V6.9375H7.80557C8.3754 6.93772 8.92482 7.15096 9.34722 7.53582C9.76961 7.92069 10.0348 8.44974 10.0914 9.02029L11.2099 20.296C11.2666 20.8674 11.5324 21.3971 11.9558 21.7821C12.3792 22.167 12.9297 22.3798 13.5004 22.3788L29.0878 22.3542L29.0909 23.8958L13.5034 23.9205C12.5525 23.9222 11.6349 23.5679 10.9292 22.9264C10.2235 22.285 9.78016 21.4024 9.68545 20.4502L8.56702 9.17292C8.54804 8.98291 8.45965 8.80676 8.31897 8.67859C8.17829 8.55042 7.99534 8.47936 7.80557 8.47917ZM13.7884 29.2917C14.1947 29.2917 14.5844 29.1292 14.8717 28.8401C15.1591 28.551 15.3205 28.1589 15.3205 27.75C15.3205 27.3411 15.1591 26.949 14.8717 26.6599C14.5844 26.3708 14.1947 26.2083 13.7884 26.2083C13.382 26.2083 12.9924 26.3708 12.705 26.6599C12.4177 26.949 12.2563 27.3411 12.2563 27.75C12.2563 28.1589 12.4177 28.551 12.705 28.8401C12.9924 29.1292 13.382 29.2917 13.7884 29.2917ZM13.7884 30.8333C14.6011 30.8333 15.3804 30.5085 15.9551 29.9302C16.5297 29.352 16.8526 28.5678 16.8526 27.75C16.8526 26.9323 16.5297 26.148 15.9551 25.5698C15.3804 24.9915 14.6011 24.6667 13.7884 24.6667C12.9757 24.6667 12.1963 24.9915 11.6217 25.5698C11.047 26.148 10.7242 26.9323 10.7242 27.75C10.7242 28.5678 11.047 29.352 11.6217 29.9302C12.1963 30.5085 12.9757 30.8333 13.7884 30.8333ZM26.0451 29.2917C26.4515 29.2917 26.8411 29.1292 27.1285 28.8401C27.4158 28.551 27.5772 28.1589 27.5772 27.75C27.5772 27.3411 27.4158 26.949 27.1285 26.6599C26.8411 26.3708 26.4515 26.2083 26.0451 26.2083C25.6388 26.2083 25.2491 26.3708 24.9618 26.6599C24.6744 26.949 24.513 27.3411 24.513 27.75C24.513 28.1589 24.6744 28.551 24.9618 28.8401C25.2491 29.1292 25.6388 29.2917 26.0451 29.2917ZM26.0451 30.8333C26.8578 30.8333 27.6372 30.5085 28.2118 29.9302C28.7865 29.352 29.1093 28.5678 29.1093 27.75C29.1093 26.9323 28.7865 26.148 28.2118 25.5698C27.6372 24.9915 26.8578 24.6667 26.0451 24.6667C25.2324 24.6667 24.4531 24.9915 23.8784 25.5698C23.3038 26.148 22.9809 26.9323 22.9809 27.75C22.9809 28.5678 23.3038 29.352 23.8784 29.9302C24.4531 30.5085 25.2324 30.8333 26.0451 30.8333Z" fill="var(--fill-0, #FF6723)"/>
<path id="Vector_2" fill-rule="evenodd" clip-rule="evenodd" d="M12.2567 11.5625C12.2567 11.3581 12.3374 11.162 12.4811 11.0174C12.6248 10.8729 12.8196 10.7917 13.0228 10.7917H30.6418C30.751 10.7916 30.859 10.815 30.9584 10.8603C31.0579 10.9056 31.1466 10.9718 31.2185 11.0545C31.2905 11.1371 31.3441 11.2343 31.3757 11.3394C31.4073 11.4446 31.4162 11.5553 31.4017 11.6643L29.8696 23.2268C29.8451 23.412 29.7545 23.582 29.6148 23.7051C29.475 23.8282 29.2955 23.896 29.1097 23.8958H28.3437C28.1405 23.8958 27.9457 23.8146 27.802 23.6701C27.6583 23.5255 27.5776 23.3294 27.5776 23.125C27.5776 22.9206 27.6583 22.7245 27.802 22.5799C27.9457 22.4354 28.1405 22.3542 28.3437 22.3542H28.4387L29.7685 12.3333H13.0228C12.8196 12.3333 12.6248 12.2521 12.4811 12.1076C12.3374 11.963 12.2567 11.7669 12.2567 11.5625Z" fill="var(--fill-0, #FF6723)"/>
</g>
</svg>
