<svg preserveAspectRatio="none" width="100%" height="100%" overflow="visible" style="display: block;" viewBox="0 0 16 16" fill="none" xmlns="http://www.w3.org/2000/svg">
<g id="Instagram">
<path id="Symbol" d="M8.01786 3.875C10.2679 3.875 12.125 5.73214 12.125 7.98214C12.125 10.2679 10.2679 12.0893 8.01786 12.0893C5.73214 12.0893 3.91071 10.2679 3.91071 7.98214C3.91071 5.73214 5.73214 3.875 8.01786 3.875ZM8.01786 10.6607C9.48214 10.6607 10.6607 9.48214 10.6607 7.98214C10.6607 6.51786 9.48214 5.33929 8.01786 5.33929C6.51786 5.33929 5.33929 6.51786 5.33929 7.98214C5.33929 9.48214 6.55357 10.6607 8.01786 10.6607ZM13.2321 3.73214C13.2321 4.26786 12.8036 4.69643 12.2679 4.69643C11.7321 4.69643 11.3036 4.26786 11.3036 3.73214C11.3036 3.19643 11.7321 2.76786 12.2679 2.76786C12.8036 2.76786 13.2321 3.19643 13.2321 3.73214ZM15.9464 4.69643C16.0179 6.01786 16.0179 9.98214 15.9464 11.3036C15.875 12.5893 15.5893 13.6964 14.6607 14.6607C13.7321 15.5893 12.5893 15.875 11.3036 15.9464C9.98214 16.0179 6.01786 16.0179 4.69643 15.9464C3.41071 15.875 2.30357 15.5893 1.33929 14.6607C0.410714 13.6964 0.125 12.5893 0.0535714 11.3036C-0.0178571 9.98214 -0.0178571 6.01786 0.0535714 4.69643C0.125 3.41071 0.410714 2.26786 1.33929 1.33929C2.30357 0.410714 3.41071 0.125 4.69643 0.0535714C6.01786 -0.0178571 9.98214 -0.0178571 11.3036 0.0535714C12.5893 0.125 13.7321 0.410714 14.6607 1.33929C15.5893 2.26786 15.875 3.41071 15.9464 4.69643ZM14.2321 12.6964C14.6607 11.6607 14.5536 9.16071 14.5536 7.98214C14.5536 6.83929 14.6607 4.33929 14.2321 3.26786C13.9464 2.58929 13.4107 2.01786 12.7321 1.76786C11.6607 1.33929 9.16071 1.44643 8.01786 1.44643C6.83929 1.44643 4.33929 1.33929 3.30357 1.76786C2.58929 2.05357 2.05357 2.58929 1.76786 3.26786C1.33929 4.33929 1.44643 6.83929 1.44643 7.98214C1.44643 9.16071 1.33929 11.6607 1.76786 12.6964C2.05357 13.4107 2.58929 13.9464 3.30357 14.2321C4.33929 14.6607 6.83929 14.5536 8.01786 14.5536C9.16071 14.5536 11.6607 14.6607 12.7321 14.2321C13.4107 13.9464 13.9821 13.4107 14.2321 12.6964Z" fill="var(--fill-0, #FF6723)"/>
</g>
</svg>
